<svg xmlns="http://www.w3.org/2000/svg" viewBox="0 0 375 375"><defs><style>.cls-1{fill:#fefefe;}.cls-2{fill:#91e8ec;}.cls-3{fill:#9ee9ed;}.cls-4{fill:#c9f1f4;}.cls-5{fill:#c0f0f3;}.cls-6{fill:#b1ecf0;}.cls-7{fill:#87e2e6;}.cls-8{fill:#a4eaee;}.cls-9{fill:#b2eaed;}.cls-10{fill:#a6e6ea;}.cls-11{fill:#bdeef1;}.cls-12{fill:#99e7eb;}.cls-13{fill:#95d9dc;}.cls-14{fill:#afe4e7;}.cls-15{fill:#98dbdf;}.cls-16{fill:#aae4e7;}.cls-17{fill:#a1dbde;}</style></defs><g id="Layer_2" data-name="Layer 2"><g id="Layer_1-2" data-name="Layer 1"><path class="cls-1" d="M.75,0V374.25H375a13.69,13.69,0,0,1-3,.72q-26.58.06-53.15,0H0Q0,189.18,0,3.37A16.23,16.23,0,0,1,.75,0Z"/><path class="cls-2" d="M117.55,174.28l14.93,4c-.57.73-1,1.72-1.75,2.15-5.38,3-10.91,5.82-16.21,9-3.17,1.91-6,4.38-9,6.6l-2.83,1.5-2.42.81c-.9-.7-1.77-1.94-2.71-2-3.58-.24-7.19-.1-11.21-.1L89.24,202l-9.73,3.81q1.84-6,3.68-12a19.17,19.17,0,0,0,3.51-1.12c6.66-3.64,13.33-7.25,19.87-11.1C110.36,179.44,113.9,176.76,117.55,174.28Z"/><path class="cls-3" d="M105.53,196c3-2.22,5.82-4.69,9-6.6,5.3-3.17,10.83-5.95,16.21-9,.75-.43,1.18-1.42,1.75-2.15L143.2,187c-2.43,1.46-4.87,2.9-7.28,4.41s-4.79,3.11-7.18,4.67c-4.77-.65-8,1.13-9.79,5.74-1,2.47-2.62,4.67-4.22,7.44-2.29-3.84-4.24-7.29-6.38-10.61A14.73,14.73,0,0,0,105.53,196Z"/><path class="cls-4" d="M150.19,220.81c-4.23,14.05-17.36,25.78-32.43,25.42-4.08-.1-8.15-.56-12.22-.85.95-1,1.88-2.11,2.84-3.15s2.1-2.24,3.15-3.35l3-.86,3.12-.82c3.47,2,2.54-2.38,4.25-2.95,3.9-1.74,7.84-3.39,11.68-5.23C139.17,226.35,144.67,223.55,150.19,220.81Z"/><path class="cls-5" d="M150.19,220.81c-5.52,2.74-11,5.54-16.59,8.21-3.84,1.84-7.78,3.49-11.68,5.23l9.44-16.59c3.22-1.43,6.43-2.87,9.66-4.27,3.54-1.54,7.1-3,10.65-4.55Z"/><path class="cls-6" d="M92.29,238.2l-7.75-9.06,15-9.09,6.59,11.24a27.25,27.25,0,0,0-5.15,1.58C98,234.48,95.19,236.41,92.29,238.2Z"/><path class="cls-7" d="M117.55,174.28c-3.65,2.48-7.19,5.16-11,7.39-6.54,3.85-13.21,7.46-19.87,11.1a19.17,19.17,0,0,1-3.51,1.12C89,181.18,103.81,172.69,117.55,174.28Z"/><path class="cls-8" d="M99.58,220.05l-15,9.09q-2.28-6-4.55-12c1.6-.91,3.15-1.92,4.81-2.7,3.07-1.43,6.19-2.72,9.29-4.07Z"/><path class="cls-9" d="M151.67,208.84c-3.55,1.52-7.11,3-10.65,4.55-3.23,1.4-6.44,2.84-9.66,4.27L142.8,198a12.26,12.26,0,0,0,2.83.45,30.13,30.13,0,0,0,3.93-.81Z"/><path class="cls-10" d="M149.56,197.64a30.13,30.13,0,0,1-3.93.81,12.26,12.26,0,0,1-2.83-.45c-.35-.57-.88-1.67-1-1.63-1.17.4-2.68.72-3.3,1.61-2.11,3-3.9,6.26-5.81,9.42l-3.35-.87,5.43-10.13-6-.31c2.39-1.56,4.76-3.15,7.18-4.67s4.85-2.95,7.28-4.41Z"/><path class="cls-11" d="M92.29,238.2c2.9-1.79,5.73-3.72,8.73-5.33a27.25,27.25,0,0,1,5.15-1.58l5.36,7.59c-1,1.11-2.11,2.22-3.15,3.35s-1.89,2.1-2.84,3.15Q98.91,241.8,92.29,238.2Z"/><path class="cls-12" d="M94.09,210.33c-3.1,1.35-6.22,2.64-9.29,4.07-1.66.78-3.21,1.79-4.81,2.7l-.48-11.26L89.24,202Z"/><path class="cls-13" d="M102.7,197.54l5.74,9.05-2.93.81-5.23-9.05Z"/><path class="cls-11" d="M114.55,238l-5.37-9.54,2.91-1.67,5.58,10.39Z"/><path class="cls-14" d="M113.78,215.54l3.07-2.21,3.86,0c-1,1.67-2.08,3.29-3,5-1.46,2.73-1.41,2.75,1.51,5l10.09-16.82,3.35.87-13.53,24.13c-2.86-5.18-5.39-9.76-7.93-14.34Z"/><path class="cls-15" d="M100.86,214.13c-2.71-4.52-5.41-9-8.16-13.65,3.88-.9,3.91-.91,5.63,2.11,2,3.53,4,7.09,6,10.63Z"/><path class="cls-16" d="M100.86,214.13l3.44-.91,7.79,13.59-2.91,1.67Q105,221.3,100.86,214.13Z"/><path class="cls-10" d="M113.78,215.54l-2.57,1.65-5.7-9.79,2.93-.81Z"/><path class="cls-17" d="M120.71,213.38l-3.86,0c2-3.56,4-7.06,5.85-10.68,1.17-2.32,2.7-3.42,5.87-2.37C125.93,204.69,123.32,209,120.71,213.38Z"/></g></g></svg>