<?xml version="1.0" encoding="UTF-8"?>
<!DOCTYPE svg PUBLIC "-//W3C//DTD SVG 1.1//EN" "http://www.w3.org/Graphics/SVG/1.1/DTD/svg11.dtd">
<!-- Creator: CorelDRAW 2018 (64-Bit) -->
<svg xmlns="http://www.w3.org/2000/svg" xml:space="preserve" width="137.936mm" height="45.1556mm" version="1.1" style="shape-rendering:geometricPrecision; text-rendering:geometricPrecision; image-rendering:optimizeQuality; fill-rule:evenodd; clip-rule:evenodd"
viewBox="0 0 13793.6 4515.56"
 xmlns:xlink="http://www.w3.org/1999/xlink">
 <defs>
  <style type="text/css">
   <![CDATA[
    .fil1 {fill:#FEFEFE;fill-rule:nonzero}
    .fil2 {fill:#FEFEFE;fill-rule:nonzero}
    .fil0 {fill:#56698F;fill-rule:nonzero}
   ]]>
  </style>
 </defs>
 <g id="Layer_x0020_1">
  <metadata id="CorelCorpID_0Corel-Layer"/>
  <polygon class="fil0" points="3843.02,3791.7 851.42,3791.7 851.42,864.2 3843.02,864.2 "/>
  <polygon class="fil1" points="741.66,810.16 1666.89,810.16 2360.84,2744.75 3075.81,810.16 3958.99,810.16 2739.33,3838.22 2003.37,3838.22 "/>
  <polygon class="fil2" points="4285.2,950.96 4533.49,950.96 4875.36,2030.11 4879.21,2030.11 5228.74,950.96 5471.31,950.96 5005.26,2314.7 4739.79,2314.7 "/>
  <path class="fil2" d="M5601.15 1327.22l217.74 0 0 987.47 -217.74 0 0 -987.47zm0 -376.27l217.74 0 0 206.27 -217.74 0 0 -206.27z"/>
  <path class="fil2" d="M6220 1997.62c6.39,63.71 30.55,108.23 72.6,133.7 42.02,25.51 92.32,38.21 150.88,38.21 20.36,0 43.61,-1.59 69.75,-4.76 26.07,-3.18 50.59,-9.21 73.52,-18.14 22.89,-8.89 41.66,-21.98 56.34,-39.19 14.6,-17.18 21.3,-39.76 20.07,-67.8 -1.31,-27.98 -11.5,-50.91 -30.59,-68.76 -19.12,-17.82 -43.64,-32.14 -73.55,-42.97 -29.92,-10.79 -63.96,-20.04 -102.17,-27.69 -38.2,-7.66 -77.08,-15.91 -116.52,-24.84 -40.74,-8.89 -79.9,-19.68 -117.44,-32.45 -37.57,-12.7 -71.33,-29.88 -101.24,-51.58 -29.96,-21.63 -53.8,-49.32 -71.62,-83.08 -17.85,-33.72 -26.74,-75.46 -26.74,-125.09 0,-53.52 13.05,-98.39 39.16,-134.66 26.07,-36.3 59.2,-65.58 99.31,-87.88 40.11,-22.26 84.66,-37.85 133.7,-46.81 49,-8.89 95.78,-13.37 140.37,-13.37 50.94,0 99.62,5.47 146.16,16.26 46.42,10.83 88.47,28.37 126.04,52.53 37.5,24.2 68.76,55.74 93.56,94.55 24.83,38.87 40.43,85.65 46.81,140.4l-227.29 0c-10.2,-52.24 -34.08,-87.24 -71.62,-105.09 -37.6,-17.82 -80.53,-26.74 -128.9,-26.74 -15.31,0 -33.44,1.27 -54.43,3.84 -21.03,2.58 -40.82,7.34 -59.24,14.33 -18.48,6.98 -34.07,17.18 -46.77,30.55 -12.77,13.37 -19.12,30.87 -19.12,52.53 0,26.74 9.2,48.43 27.69,64.94 18.45,16.55 42.65,30.27 72.56,41.07 29.92,10.83 64,20.07 102.2,27.69 38.21,7.62 77.65,15.94 118.4,24.83 39.51,8.93 78.35,19.76 116.52,32.49 38.21,12.74 72.28,29.92 102.2,51.55 29.88,21.66 54.12,49.03 72.57,82.16 18.48,33.09 27.69,73.83 27.69,122.2 0,58.6 -13.37,108.27 -40.08,148.98 -26.74,40.78 -61.49,73.87 -104.1,99.3 -42.65,25.51 -90.1,43.96 -142.31,55.43 -52.21,11.46 -103.79,17.18 -154.7,17.18 -62.4,0 -120.05,-7.02 -172.86,-21.03 -52.84,-13.97 -98.7,-35.35 -137.51,-63.96 -38.88,-28.68 -69.43,-64.27 -91.69,-106.96 -22.29,-42.65 -34.07,-93.27 -35.34,-151.87l217.73 0z"/>
  <path class="fil2" d="M6947.71 1327.24l164.22 0 0 -296.09 217.77 0 0 296.09 196.71 0 0 162.34 -196.71 0 0 527.16c0,22.9 0.95,42.69 2.86,59.23 1.9,16.51 6.35,30.55 13.37,41.98 6.98,11.47 17.49,20.04 31.53,25.83 13.97,5.71 33.09,8.57 57.29,8.57 15.28,0 30.56,-0.28 45.83,-0.95 15.28,-0.64 30.59,-2.9 45.83,-6.71l0 168.1c-24.17,2.54 -47.73,5.08 -70.66,7.62 -22.9,2.58 -46.5,3.85 -70.67,3.85 -57.32,0 -103.47,-5.47 -138.46,-16.23 -35.07,-10.83 -62.41,-26.74 -82.13,-47.77 -19.75,-20.99 -33.12,-47.41 -40.11,-79.27 -7.02,-31.82 -11.18,-68.08 -12.45,-108.86l0 -582.55 -164.22 0 0 -162.34z"/>
  <path class="fil2" d="M8292.33 1819.99c-33.09,21.66 -73.87,34.71 -122.24,39.16 -48.4,4.48 -96.76,11.18 -145.17,20.07 -22.89,3.81 -45.19,9.24 -66.85,16.23 -21.66,7.02 -40.74,16.54 -57.29,28.64 -16.54,12.14 -29.6,28.01 -39.16,47.77 -9.52,19.75 -14.32,43.64 -14.32,71.61 0,24.2 6.99,44.59 20.99,61.1 14.04,16.58 30.87,29.64 50.62,39.2 19.76,9.52 41.39,16.23 64.95,20.04 23.57,3.81 44.87,5.71 63.99,5.71 24.17,0 50.28,-3.17 78.32,-9.52 27.98,-6.39 54.43,-17.22 79.27,-32.5 24.8,-15.27 45.51,-34.67 62.09,-58.24 16.51,-23.56 24.8,-52.53 24.8,-86.89l0 -162.38zm217.77 275.06c0,26.74 3.46,45.86 10.51,57.29 6.95,11.47 20.67,17.18 41.03,17.18l22.93 0c8.89,0 19.09,-1.23 30.55,-3.81l0 150.88c-7.62,2.54 -17.53,5.4 -29.56,8.61 -12.14,3.18 -24.59,6.03 -37.29,8.57 -12.7,2.58 -25.47,4.45 -38.17,5.75 -12.74,1.27 -23.6,1.91 -32.49,1.91 -44.59,0 -81.53,-8.93 -110.81,-26.74 -29.28,-17.78 -48.4,-49 -57.29,-93.59 -43.29,42.05 -96.45,72.6 -159.46,91.68 -63.04,19.12 -123.86,28.65 -182.42,28.65 -44.59,0 -87.24,-6.07 -127.95,-18.13 -40.78,-12.1 -76.76,-29.92 -107.95,-53.48 -31.19,-23.57 -56.02,-53.49 -74.47,-89.79 -18.45,-36.26 -27.69,-78.6 -27.69,-127.03 0,-61.1 11.11,-110.74 33.4,-148.94 22.3,-38.21 51.58,-68.13 87.88,-89.79 36.3,-21.62 77.01,-37.25 122.24,-46.77 45.15,-9.57 90.7,-16.9 136.56,-21.98 39.44,-7.66 77.05,-13.02 112.71,-16.23 35.6,-3.18 67.13,-8.61 94.51,-16.23 27.41,-7.65 49.04,-19.4 64.95,-35.35 15.91,-15.91 23.88,-39.79 23.88,-71.61 0,-28.01 -6.7,-50.94 -20.04,-68.79 -13.37,-17.82 -29.95,-31.51 -49.67,-41.07 -19.75,-9.52 -41.7,-15.91 -65.9,-19.08 -24.2,-3.18 -47.13,-4.8 -68.75,-4.8 -61.11,0 -111.45,12.77 -150.89,38.21 -39.51,25.5 -61.77,64.94 -66.85,118.42l-217.73 0c3.81,-63.64 19.08,-116.52 45.82,-158.5 26.74,-42.05 60.82,-75.78 102.17,-101.25 41.38,-25.47 88.19,-43.28 140.4,-53.48 52.18,-10.16 105.69,-15.31 160.45,-15.31 48.36,0 96.09,5.15 143.22,15.31 47.1,10.2 89.5,26.74 127.04,49.64 37.53,22.96 67.8,52.56 90.73,88.83 22.93,36.3 34.4,80.54 34.4,132.78l0 508.04z"/>
  <path class="fil2" d="M9014.32 1571.7l391.55 0c76.41,0 134.3,-18.17 173.77,-54.43 39.51,-36.27 59.24,-90.7 59.24,-163.3 0,-43.26 -6.39,-78.6 -19.09,-106.01 -12.74,-27.38 -30.27,-48.72 -52.53,-64 -22.29,-15.27 -47.76,-25.43 -76.41,-30.55 -28.65,-5.08 -58.28,-7.62 -88.83,-7.62l-387.7 0 0 425.91zm-238.76 -620.75l651.3 0c150.24,0 262.92,32.46 338.06,97.4 75.14,64.95 112.72,155.37 112.72,271.25 0,64.92 -9.57,118.75 -28.65,161.4 -19.12,42.65 -41.42,77.01 -66.85,103.12 -25.51,26.1 -50.63,44.87 -75.46,56.34 -24.84,11.46 -42.97,19.08 -54.43,22.93l0 3.81c20.35,2.57 42.29,8.92 65.89,19.12 23.53,10.19 45.51,26.42 65.9,48.68 20.36,22.3 37.26,51.29 50.63,86.93 13.37,35.66 20.03,80.18 20.03,133.7 0,80.18 6.04,153.14 18.17,218.68 12.07,65.59 30.84,112.4 56.34,140.41l-255.94 0c-17.85,-29.32 -28.36,-61.77 -31.54,-97.44 -3.21,-35.63 -4.76,-70.02 -4.76,-103.15 0,-62.37 -3.81,-116.17 -11.47,-161.36 -7.65,-45.19 -21.66,-82.8 -42.01,-112.71 -20.36,-29.88 -48.08,-51.86 -83.08,-65.9 -35.03,-13.97 -79.9,-20.99 -134.66,-20.99l-351.43 0 0 561.55 -238.76 0 0 -1363.77z"/>
  <path class="fil2" d="M11040.83 1384.53c-10.2,-39.44 -24.2,-75.74 -41.98,-108.87 -17.85,-33.09 -40.82,-61.77 -68.79,-85.93 -28.05,-24.2 -60.82,-43.01 -98.39,-56.38 -37.54,-13.37 -81.14,-20.04 -130.81,-20.04 -72.57,0 -135.33,14.64 -188.14,43.93 -52.85,29.31 -95.85,68.47 -128.94,117.47 -33.09,49 -57.61,104.74 -73.52,167.11 -15.94,62.41 -23.88,126.05 -23.88,191 0,64.94 7.94,128.65 23.88,190.99 15.91,62.44 40.43,118.14 73.52,167.11 33.09,49.07 76.09,88.19 128.94,117.51 52.81,29.32 115.57,43.92 188.14,43.92 53.48,0 100.57,-9.21 141.32,-27.73 40.74,-18.41 75.78,-43.92 105.09,-76.37 29.25,-32.46 52.18,-70.35 68.76,-113.63 16.51,-43.29 27.34,-89.79 32.45,-139.42l233.01 0c-5.08,81.46 -22.61,155.96 -52.53,223.45 -29.95,67.52 -70.34,125.76 -121.25,174.76 -50.97,49.04 -110.8,86.93 -179.56,113.63 -68.79,26.74 -144.53,40.11 -227.29,40.11 -101.89,0 -193.22,-18.76 -274.08,-56.33 -80.89,-37.54 -149.33,-88.8 -205.35,-153.74 -56.02,-64.95 -98.99,-140.69 -128.9,-227.3 -29.92,-86.57 -44.88,-178.89 -44.88,-276.96 0,-96.74 14.96,-188.42 44.88,-275.03 29.91,-86.57 72.88,-162.35 128.9,-227.3 56.02,-64.94 124.46,-116.52 205.35,-154.72 80.86,-38.17 172.19,-57.29 274.08,-57.29 76.37,0 148.3,10.51 215.83,31.53 67.48,20.99 127,51.58 178.57,91.66 51.58,40.11 93.28,88.82 125.13,146.12 31.79,57.32 51.58,122.9 59.2,196.74l-238.76 0z"/>
  <polygon class="fil2" points="11495.41,950.96 11831.53,950.96 12207.81,2018.64 12211.65,2018.64 12578.36,950.96 12910.72,950.96 12910.72,2314.7 12683.42,2314.7 12683.42,1262.29 12679.58,1262.29 12301.43,2314.7 12104.69,2314.7 11726.51,1262.29 11722.67,1262.29 11722.67,2314.7 11495.41,2314.7 "/>
  <polygon class="fil2" points="4837.66,3359.33 4717.15,3164.21 4782.34,3164.21 4867.33,3308.07 4950.97,3164.21 5013.91,3164.21 4893.86,3359.33 4893.86,3485.23 4837.66,3485.23 "/>
  <path class="fil2" d="M5182.1 3202.4c-17.08,0 -31.86,3.46 -44.31,10.34 -12.42,6.92 -22.58,16.12 -30.34,27.66 -7.8,11.53 -13.58,24.66 -17.29,39.33 -3.77,14.71 -5.64,29.71 -5.64,44.98 0,15.28 1.87,30.27 5.64,44.98 3.71,14.68 9.49,27.8 17.29,39.34 7.76,11.57 17.92,20.74 30.34,27.65 12.45,6.92 27.23,10.38 44.31,10.38 17.07,0 31.82,-3.46 44.27,-10.38 12.42,-6.91 22.58,-16.08 30.34,-27.65 7.83,-11.54 13.58,-24.66 17.32,-39.34 3.77,-14.71 5.64,-29.7 5.64,-44.98 0,-15.27 -1.87,-30.27 -5.64,-44.98 -3.74,-14.67 -9.49,-27.8 -17.32,-39.33 -7.76,-11.54 -17.92,-20.74 -30.34,-27.66 -12.45,-6.88 -27.2,-10.34 -44.27,-10.34zm0 -45.86c23.98,0 45.47,4.48 64.52,13.48 19.01,9 35.14,21.17 48.33,36.44 13.19,15.28 23.28,33.13 30.37,53.52 7.02,20.39 10.55,41.94 10.55,64.73 0,23.11 -3.53,44.81 -10.55,65.2 -7.09,20.42 -17.18,38.2 -30.37,53.51 -13.19,15.31 -29.32,27.34 -48.33,36.2 -19.05,8.82 -40.54,13.26 -64.52,13.26 -23.99,0 -45.51,-4.44 -64.53,-13.26 -19.05,-8.86 -35.13,-20.89 -48.33,-36.2 -13.19,-15.31 -23.32,-33.09 -30.37,-53.51 -7.06,-20.39 -10.55,-42.09 -10.55,-65.2 0,-22.79 3.49,-44.34 10.55,-64.73 7.05,-20.39 17.18,-38.24 30.37,-53.52 13.2,-15.27 29.28,-27.44 48.33,-36.44 19.02,-9 40.54,-13.48 64.53,-13.48z"/>
  <path class="fil2" d="M5383.53 3164.2l56.2 0 0 187.04c0,10.79 0.49,21.73 1.59,32.81 1.02,11.11 4.02,21.09 8.99,29.91 4.91,8.86 12.42,16.12 22.44,21.8 10.05,5.72 24.24,8.54 42.51,8.54 18.27,0 32.45,-2.82 42.47,-8.54 10.09,-5.68 17.57,-12.94 22.51,-21.8 4.94,-8.82 7.94,-18.8 9,-29.91 1.02,-11.08 1.58,-22.02 1.58,-32.81l0 -187.04 56.2 0 0 205.49c0,20.67 -3.14,38.66 -9.45,53.94 -6.32,15.31 -15.21,28.11 -26.78,38.45 -11.53,10.34 -25.36,18.06 -41.56,23.18 -16.19,5.08 -34.18,7.62 -53.97,7.62 -19.76,0 -37.78,-2.54 -53.94,-7.62 -16.19,-5.12 -30.06,-12.84 -41.63,-23.18 -11.53,-10.34 -20.46,-23.14 -26.7,-38.45 -6.32,-15.28 -9.46,-33.27 -9.46,-53.94l0 -205.49z"/>
  <path class="fil2" d="M5892.96 3316.16l82.3 0c6.32,0 12.74,-0.88 19.33,-2.68 6.6,-1.8 12.67,-4.73 18.21,-8.75 5.57,-4.06 10.05,-9.49 13.47,-16.19 3.46,-6.77 5.22,-15.24 5.22,-25.44 0,-10.47 -1.51,-19.19 -4.51,-26.07 -3,-6.88 -7.06,-12.38 -12.14,-16.4 -5.08,-4.06 -10.93,-6.81 -17.53,-8.33 -6.6,-1.48 -13.65,-2.25 -21.17,-2.25l-83.18 0 0 106.11zm-56.2 -151.98l141.64 0c22.79,0 41.38,3.32 55.77,9.92 14.4,6.56 25.47,14.85 33.27,24.73 7.8,9.88 13.09,20.67 15.95,32.38 2.85,11.68 4.3,22.47 4.3,32.35 0,9.88 -1.45,20.64 -4.3,32.18 -2.86,11.53 -8.15,22.26 -15.95,32.13 -7.8,9.88 -18.87,18.07 -33.27,24.49 -14.39,6.45 -32.98,9.7 -55.77,9.7l-85.44 0 0 123.19 -56.2 0 0 -321.07z"/>
  <path class="fil2" d="M6192.89 3310.34l92.18 0c17.99,0 31.64,-4.27 40.92,-12.81 9.32,-8.54 13.97,-21.38 13.97,-38.45 0,-10.2 -1.51,-18.52 -4.51,-24.98 -3,-6.45 -7.13,-11.43 -12.39,-15.06 -5.22,-3.56 -11.21,-6 -17.95,-7.2 -6.78,-1.16 -13.73,-1.8 -20.92,-1.8l-91.3 0 0 100.3zm-56.2 -146.16l153.35 0c35.35,0 61.88,7.66 79.59,22.93 17.67,15.28 26.53,36.58 26.53,63.85 0,15.32 -2.26,27.94 -6.77,38.03 -4.48,10.02 -9.74,18.1 -15.74,24.28 -5.99,6.13 -11.89,10.54 -17.74,13.26 -5.86,2.68 -10.13,4.48 -12.81,5.36l0 0.92c4.8,0.6 9.95,2.08 15.49,4.51 5.54,2.4 10.72,6.21 15.56,11.47 4.76,5.22 8.75,12.06 11.88,20.46 3.14,8.36 4.7,18.87 4.7,31.47 0,18.87 1.44,36.05 4.27,51.47 2.89,15.45 7.3,26.46 13.26,33.05l-60.25 0c-4.17,-6.87 -6.64,-14.53 -7.41,-22.93 -0.74,-8.39 -1.13,-16.47 -1.13,-24.27 0,-14.71 -0.88,-27.34 -2.68,-37.99 -1.8,-10.66 -5.08,-19.51 -9.88,-26.53 -4.8,-7.06 -11.32,-12.24 -19.58,-15.52 -8.22,-3.28 -18.8,-4.94 -31.68,-4.94l-82.76 0 0 132.18 -56.2 0 0 -321.06z"/>
  <path class="fil2" d="M6519.38 3357.54l98 0 -48.12 -138.05 -1.34 0 -48.54 138.05zm19.79 -193.33l59.8 0 123.65 321.03 -60.26 0 -30.13 -84.98 -128.16 0 -30.13 84.98 -57.99 0 123.22 -321.03z"/>
  <path class="fil2" d="M6969.9 3266.28c-2.4,-9.32 -5.68,-17.86 -9.88,-25.65 -4.2,-7.8 -9.63,-14.54 -16.19,-20.25 -6.6,-5.68 -14.36,-10.09 -23.18,-13.27 -8.82,-3.14 -19.09,-4.72 -30.8,-4.72 -17.07,0 -31.85,3.45 -44.27,10.33 -12.46,6.95 -22.58,16.13 -30.38,27.7 -7.76,11.53 -13.58,24.66 -17.28,39.33 -3.74,14.71 -5.61,29.71 -5.61,44.95 0,15.31 1.87,30.3 5.61,45.01 3.7,14.68 9.52,27.8 17.28,39.33 7.8,11.54 17.92,20.75 30.38,27.63 12.42,6.91 27.2,10.37 44.27,10.37 12.6,0 23.67,-2.19 33.3,-6.56 9.56,-4.34 17.82,-10.3 24.73,-17.96 6.88,-7.65 12.28,-16.54 16.16,-26.74 3.88,-10.2 6.46,-21.17 7.66,-32.84l54.85 0c-1.2,19.19 -5.32,36.72 -12.34,52.6 -7.06,15.91 -16.59,29.59 -28.58,41.13 -11.99,11.57 -26.07,20.5 -42.26,26.78 -16.2,6.31 -34.05,9.45 -53.52,9.45 -23.95,0 -45.51,-4.45 -64.52,-13.26 -19.05,-8.86 -35.14,-20.92 -48.33,-36.24 -13.2,-15.27 -23.32,-33.09 -30.34,-53.48 -7.06,-20.39 -10.58,-42.08 -10.58,-65.22 0,-22.76 3.52,-44.35 10.58,-64.74 7.02,-20.39 17.14,-38.24 30.34,-53.48 13.19,-15.31 29.28,-27.48 48.33,-36.48 19.01,-8.96 40.57,-13.44 64.52,-13.44 17.99,0 34.93,2.47 50.84,7.41 15.87,4.94 29.91,12.14 42.01,21.59 12.17,9.42 21.94,20.92 29.46,34.4 7.48,13.47 12.13,28.92 13.97,46.32l-56.23 0z"/>
  <polygon class="fil2" points="7047.24,3164.2 7307.17,3164.2 7307.17,3212.74 7205.11,3212.74 7205.11,3485.26 7148.87,3485.26 7148.87,3212.74 7047.24,3212.74 "/>
  <polygon class="fil2" points="7344.44,3164.21 7400.64,3164.21 7400.64,3485.27 7344.44,3485.27 "/>
  <path class="fil2" d="M7686.2 3266.28c-2.4,-9.32 -5.68,-17.86 -9.88,-25.65 -4.2,-7.8 -9.63,-14.54 -16.19,-20.25 -6.6,-5.68 -14.36,-10.09 -23.18,-13.27 -8.82,-3.14 -19.08,-4.72 -30.79,-4.72 -17.08,0 -31.86,3.45 -44.28,10.33 -12.45,6.95 -22.58,16.13 -30.37,27.7 -7.76,11.53 -13.58,24.66 -17.29,39.33 -3.74,14.71 -5.61,29.71 -5.61,44.95 0,15.31 1.87,30.3 5.61,45.01 3.71,14.68 9.53,27.8 17.29,39.33 7.79,11.54 17.92,20.75 30.37,27.63 12.42,6.91 27.2,10.37 44.28,10.37 12.59,0 23.67,-2.19 33.3,-6.56 9.56,-4.34 17.81,-10.3 24.73,-17.96 6.88,-7.65 12.27,-16.54 16.15,-26.74 3.89,-10.2 6.46,-21.17 7.66,-32.84l54.86 0c-1.2,19.19 -5.33,36.72 -12.35,52.6 -7.06,15.91 -16.58,29.59 -28.58,41.13 -11.99,11.57 -26.07,20.5 -42.26,26.78 -16.19,6.31 -34.04,9.45 -53.51,9.45 -23.96,0 -45.51,-4.45 -64.53,-13.26 -19.05,-8.86 -35.13,-20.92 -48.33,-36.24 -13.19,-15.27 -23.32,-33.09 -30.34,-53.48 -7.05,-20.39 -10.58,-42.08 -10.58,-65.22 0,-22.76 3.53,-44.35 10.58,-64.74 7.02,-20.39 17.15,-38.24 30.34,-53.48 13.2,-15.31 29.28,-27.48 48.33,-36.48 19.02,-8.96 40.57,-13.44 64.53,-13.44 17.99,0 34.92,2.47 50.83,7.41 15.88,4.94 29.92,12.14 42.02,21.59 12.17,9.42 21.94,20.92 29.45,34.4 7.48,13.47 12.14,28.92 13.97,46.32l-56.23 0z"/>
  <polygon class="fil2" points="7794.1,3164.2 8025.24,3164.2 8025.24,3212.74 7850.3,3212.74 7850.3,3296.84 8012.19,3296.84 8012.19,3342.7 7850.3,3342.7 7850.3,3436.68 8028.38,3436.68 8028.38,3485.26 7794.1,3485.26 "/>
  <path class="fil2" d="M8074.26 3424.54l62.47 0 0 60.71c-0.28,18.56 -5.96,34.15 -17.07,46.75 -11.08,12.59 -25.61,20.71 -43.6,24.27l0 -27.41c9.87,-2.4 17.28,-7.87 22.26,-16.41 4.9,-8.53 7.26,-17.63 6.95,-27.2l-31.01 0 0 -60.71z"/>
  <polygon class="fil2" points="8295.91,3164.2 8353.03,3164.2 8411.06,3409.69 8411.94,3409.69 8476.68,3164.2 8534.25,3164.2 8597.19,3409.69 8598.07,3409.69 8657.9,3164.2 8715.01,3164.2 8626.43,3485.26 8569.32,3485.26 8505.04,3239.76 8504.09,3239.76 8438.47,3485.26 8380.44,3485.26 "/>
  <polygon class="fil2" points="8751.87,3164.2 8983.01,3164.2 8983.01,3212.74 8808.07,3212.74 8808.07,3296.84 8969.96,3296.84 8969.96,3342.7 8808.07,3342.7 8808.07,3436.68 8986.15,3436.68 8986.15,3485.26 8751.87,3485.26 "/>
  <path class="fil2" d="M9197.01 3378.24c0,12.28 2.12,22.79 6.32,31.47 4.2,8.71 10.02,15.8 17.53,21.34 7.48,5.54 16.12,9.63 25.86,12.17 9.74,2.54 20.29,3.81 31.72,3.81 12.24,0 22.75,-1.44 31.43,-4.27 8.71,-2.85 15.77,-6.52 21.16,-11 5.37,-4.52 9.28,-9.71 11.68,-15.56 2.4,-5.82 3.6,-11.75 3.6,-17.75 0,-12.27 -2.79,-21.34 -8.33,-27.2 -5.53,-5.82 -11.6,-9.94 -18.23,-12.38 -11.36,-4.16 -24.63,-8.15 -39.76,-11.92 -15.14,-3.71 -33.8,-8.61 -55.99,-14.61 -13.79,-3.56 -25.26,-8.29 -34.39,-14.14 -9.18,-5.86 -16.44,-12.39 -21.81,-19.58 -5.39,-7.16 -9.24,-14.82 -11.46,-22.9 -2.26,-8.11 -3.39,-16.33 -3.39,-24.73 0,-16.19 3.39,-30.23 10.13,-42.08 6.73,-11.82 15.62,-21.63 26.74,-29.43 11.07,-7.79 23.7,-13.58 37.78,-17.32 14.11,-3.74 28.33,-5.61 42.72,-5.61 16.79,0 32.6,2.16 47.45,6.5 14.82,4.33 27.87,10.9 39.09,19.57 11.29,8.68 20.18,19.41 26.77,32.14 6.6,12.77 9.88,27.52 9.88,44.31l-56.16 0c-1.52,-20.71 -8.57,-35.31 -21.17,-43.85 -12.59,-8.54 -28.64,-12.8 -48.12,-12.8 -6.59,0 -13.33,0.67 -20.25,2.01 -6.88,1.34 -13.19,3.59 -18.87,6.77 -5.68,3.14 -10.41,7.41 -14.15,12.81 -3.77,5.36 -5.61,12.13 -5.61,20.21 0,11.39 3.5,20.32 10.55,26.78 7.06,6.45 16.23,11.28 27.66,14.6 1.2,0.32 5.93,1.59 14.15,3.81 8.25,2.26 17.46,4.73 27.65,7.41 10.2,2.72 20.18,5.36 29.92,7.9 9.74,2.54 16.72,4.41 20.92,5.61 10.48,3.32 19.61,7.8 27.41,13.48 7.8,5.71 14.29,12.24 19.58,19.58 5.22,7.33 9.14,15.2 11.68,23.6 2.54,8.39 3.81,16.79 3.81,25.18 0,17.96 -3.67,33.34 -11.01,46.08 -7.34,12.77 -17.04,23.14 -29.03,31.25 -11.96,8.08 -25.61,14.01 -40.89,17.78 -15.28,3.71 -30.9,5.61 -46.78,5.61 -18.27,0 -35.52,-2.22 -51.72,-6.74 -16.19,-4.48 -30.26,-11.39 -42.26,-20.67 -11.99,-9.31 -21.55,-21.24 -28.75,-35.77 -7.23,-14.53 -10.97,-31.68 -11.25,-51.47l56.19 0z"/>
  <path class="fil2" d="M9447.95 3164.2l56.2 0 0 187.04c0,10.79 0.49,21.73 1.59,32.81 1.02,11.11 4.02,21.09 8.99,29.91 4.91,8.86 12.42,16.12 22.44,21.8 10.05,5.72 24.24,8.54 42.51,8.54 18.27,0 32.45,-2.82 42.47,-8.54 10.09,-5.68 17.57,-12.94 22.51,-21.8 4.94,-8.82 7.94,-18.8 9,-29.91 1.02,-11.08 1.58,-22.02 1.58,-32.81l0 -187.04 56.2 0 0 205.49c0,20.67 -3.14,38.66 -9.45,53.94 -6.32,15.31 -15.21,28.11 -26.78,38.45 -11.53,10.34 -25.36,18.06 -41.56,23.18 -16.19,5.08 -34.18,7.62 -53.97,7.62 -19.76,0 -37.78,-2.54 -53.94,-7.62 -16.19,-5.12 -30.06,-12.84 -41.63,-23.18 -11.53,-10.34 -20.46,-23.14 -26.7,-38.45 -6.32,-15.28 -9.46,-33.27 -9.46,-53.94l0 -205.49z"/>
  <path class="fil2" d="M9832.36 3316.16l82.3 0c6.31,0 12.73,-0.88 19.33,-2.68 6.6,-1.8 12.67,-4.73 18.2,-8.75 5.58,-4.06 10.06,-9.49 13.48,-16.19 3.46,-6.77 5.22,-15.24 5.22,-25.44 0,-10.47 -1.51,-19.19 -4.51,-26.07 -3,-6.88 -7.06,-12.38 -12.14,-16.4 -5.08,-4.06 -10.94,-6.81 -17.53,-8.33 -6.6,-1.48 -13.65,-2.25 -21.17,-2.25l-83.18 0 0 106.11zm-56.2 -151.98l141.64 0c22.79,0 41.38,3.32 55.77,9.92 14.4,6.56 25.47,14.85 33.27,24.73 7.8,9.88 13.09,20.67 15.95,32.38 2.85,11.68 4.3,22.47 4.3,32.35 0,9.88 -1.45,20.64 -4.3,32.18 -2.86,11.53 -8.15,22.26 -15.95,32.13 -7.8,9.88 -18.87,18.07 -33.27,24.49 -14.39,6.45 -32.98,9.7 -55.77,9.7l-85.44 0 0 123.19 -56.2 0 0 -321.07z"/>
  <path class="fil2" d="M10132.29 3316.16l82.3 0c6.32,0 12.74,-0.88 19.33,-2.68 6.6,-1.8 12.67,-4.73 18.21,-8.75 5.57,-4.06 10.05,-9.49 13.47,-16.19 3.46,-6.77 5.22,-15.24 5.22,-25.44 0,-10.47 -1.51,-19.19 -4.51,-26.07 -3,-6.88 -7.06,-12.38 -12.14,-16.4 -5.08,-4.06 -10.93,-6.81 -17.53,-8.33 -6.6,-1.48 -13.65,-2.25 -21.17,-2.25l-83.18 0 0 106.11zm-56.2 -151.98l141.64 0c22.79,0 41.38,3.32 55.77,9.92 14.4,6.56 25.48,14.85 33.27,24.73 7.8,9.88 13.09,20.67 15.95,32.38 2.85,11.68 4.3,22.47 4.3,32.35 0,9.88 -1.45,20.64 -4.3,32.18 -2.86,11.53 -8.15,22.26 -15.95,32.13 -7.79,9.88 -18.87,18.07 -33.27,24.49 -14.39,6.45 -32.98,9.7 -55.77,9.7l-85.44 0 0 123.19 -56.2 0 0 -321.07z"/>
  <path class="fil2" d="M10512.73 3202.4c-17.08,0 -31.86,3.46 -44.31,10.34 -12.42,6.92 -22.58,16.12 -30.34,27.66 -7.8,11.53 -13.58,24.66 -17.29,39.33 -3.77,14.71 -5.64,29.71 -5.64,44.98 0,15.28 1.87,30.27 5.64,44.98 3.71,14.68 9.49,27.8 17.29,39.34 7.76,11.57 17.92,20.74 30.34,27.65 12.45,6.92 27.23,10.38 44.31,10.38 17.07,0 31.82,-3.46 44.27,-10.38 12.42,-6.91 22.58,-16.08 30.34,-27.65 7.83,-11.54 13.58,-24.66 17.32,-39.34 3.78,-14.71 5.65,-29.7 5.65,-44.98 0,-15.27 -1.87,-30.27 -5.65,-44.98 -3.74,-14.67 -9.49,-27.8 -17.32,-39.33 -7.76,-11.54 -17.92,-20.74 -30.34,-27.66 -12.45,-6.88 -27.2,-10.34 -44.27,-10.34zm0 -45.86c23.99,0 45.47,4.48 64.52,13.48 19.01,9 35.14,21.17 48.33,36.44 13.19,15.28 23.28,33.13 30.37,53.52 7.02,20.39 10.55,41.94 10.55,64.73 0,23.11 -3.53,44.81 -10.55,65.2 -7.09,20.42 -17.18,38.2 -30.37,53.51 -13.19,15.31 -29.32,27.34 -48.33,36.2 -19.05,8.82 -40.53,13.26 -64.52,13.26 -23.99,0 -45.51,-4.44 -64.53,-13.26 -19.05,-8.86 -35.13,-20.89 -48.33,-36.2 -13.19,-15.31 -23.32,-33.09 -30.37,-53.51 -7.06,-20.39 -10.55,-42.09 -10.55,-65.2 0,-22.79 3.49,-44.34 10.55,-64.73 7.05,-20.39 17.18,-38.24 30.37,-53.52 13.2,-15.27 29.28,-27.44 48.33,-36.44 19.02,-9 40.54,-13.48 64.53,-13.48z"/>
  <path class="fil2" d="M10773.93 3310.34l92.19 0c17.99,0 31.64,-4.27 40.92,-12.81 9.31,-8.54 13.97,-21.38 13.97,-38.45 0,-10.2 -1.52,-18.52 -4.52,-24.98 -3,-6.45 -7.12,-11.43 -12.38,-15.06 -5.22,-3.56 -11.22,-6 -17.96,-7.2 -6.77,-1.16 -13.72,-1.8 -20.92,-1.8l-91.3 0 0 100.3zm-56.19 -146.16l153.35 0c35.35,0 61.88,7.66 79.59,22.93 17.67,15.28 26.52,36.58 26.52,63.85 0,15.32 -2.25,27.94 -6.77,38.03 -4.48,10.02 -9.74,18.1 -15.73,24.28 -6,6.13 -11.89,10.54 -17.75,13.26 -5.85,2.68 -10.12,4.48 -12.8,5.36l0 0.92c4.79,0.6 9.95,2.08 15.48,4.51 5.54,2.4 10.73,6.21 15.56,11.47 4.76,5.22 8.75,12.06 11.89,20.46 3.14,8.36 4.69,18.87 4.69,31.47 0,18.87 1.45,36.05 4.27,51.47 2.89,15.45 7.3,26.46 13.27,33.05l-60.26 0c-4.16,-6.87 -6.63,-14.53 -7.41,-22.93 -0.74,-8.39 -1.13,-16.47 -1.13,-24.27 0,-14.71 -0.88,-27.34 -2.68,-37.99 -1.8,-10.66 -5.08,-19.51 -9.88,-26.53 -4.79,-7.06 -11.32,-12.24 -19.57,-15.52 -8.22,-3.28 -18.81,-4.94 -31.68,-4.94l-82.77 0 0 132.18 -56.19 0 0 -321.06z"/>
  <polygon class="fil2" points="10995.63,3164.2 11255.55,3164.2 11255.55,3212.74 11153.49,3212.74 11153.49,3485.26 11097.26,3485.26 11097.26,3212.74 10995.63,3212.74 "/>
  <path class="fil2" d="M11293.32 3164.2l56.23 0 0 92.63 -14.85 138.93 -26.53 0 -14.85 -138.93 0 -92.63zm-2.22 264.83l60.25 0 0 56.23 -60.25 0 0 -56.23z"/>
 </g>
</svg>
